HIERARCHY
ROOT mixamorig:Hips
{
	OFFSET 0.00 0.00 0.00
	CHANNELS 6 Xposition Yposition Zposition Zrotation Yrotation Xrotation
	JOINT mixamorig:Spine
	{
		OFFSET	0.0000	9.9235	-1.2273
		CHANNELS 3 Zrotation Yrotation Xrotation
		JOINT mixamorig:Spine1
		{
			OFFSET	-0.0001	11.6454	-1.4223
			CHANNELS 3 Zrotation Yrotation Xrotation
			JOINT mixamorig:Spine2
			{
				OFFSET	0.0001	13.3602	-1.6265
				CHANNELS 3 Zrotation Yrotation Xrotation
				JOINT mixamorig:Neck
				{
					OFFSET	0.0000	15.0325	0.7929
					CHANNELS 3 Zrotation Yrotation Xrotation
					JOINT mixamorig:Head
					{
						OFFSET	0.0000	10.3218	3.1424
						CHANNELS 3 Zrotation Yrotation Xrotation
						JOINT mixamorig:HeadTop_End
						{
							OFFSET	0.0002	18.4747	6.6364
							CHANNELS 3 Zrotation Yrotation Xrotation
							End Site
							{
								OFFSET 0.0000 0.0000 0.0000
							}
						}
						JOINT mixamorig:LeftEye
						{
							OFFSET	2.9479	7.6817	9.1207
							CHANNELS 3 Zrotation Yrotation Xrotation
							End Site
							{
								OFFSET 0.0000 0.0000 0.0000
							}
						}
						JOINT mixamorig:RightEye
						{
							OFFSET	-2.9445	7.6817	9.1205
							CHANNELS 3 Zrotation Yrotation Xrotation
							End Site
							{
								OFFSET 0.0000 0.0000 0.0000
							}
						}
					}
				}
				JOINT mixamorig:LeftShoulder
				{
					OFFSET	6.1058	9.1104	0.7056
					CHANNELS 3 Zrotation Yrotation Xrotation
					JOINT mixamorig:LeftArm
					{
						OFFSET	12.6532	-0.3431	-2.6009
						CHANNELS 3 Zrotation Yrotation Xrotation
						JOINT mixamorig:LeftForeArm
						{
							OFFSET	27.3517	-0.9645	-1.4034
							CHANNELS 3 Zrotation Yrotation Xrotation
							JOINT mixamorig:LeftHand
							{
								OFFSET	27.5619	-0.7072	1.5501
								CHANNELS 3 Zrotation Yrotation Xrotation
								JOINT mixamorig:LeftHandMiddle1
								{
									OFFSET	12.6631	-1.3962	0.9548
									CHANNELS 3 Zrotation Yrotation Xrotation
									JOINT mixamorig:LeftHandMiddle2
									{
										OFFSET	3.6093	-0.1669	0.0778
										CHANNELS 3 Zrotation Yrotation Xrotation
										JOINT mixamorig:LeftHandMiddle3
										{
											OFFSET	3.4005	-0.6274	0.1147
											CHANNELS 3 Zrotation Yrotation Xrotation
											End Site
											{
												OFFSET 3.6205 -0.6493 0.1199
											}
										}
									}
								}
								JOINT mixamorig:LeftHandThumb1
								{
									OFFSET	3.3268	-2.0475	3.5790
									CHANNELS 3 Zrotation Yrotation Xrotation
									JOINT mixamorig:LeftHandThumb2
									{
										OFFSET	3.4890	-1.4806	2.8548
										CHANNELS 3 Zrotation Yrotation Xrotation
										JOINT mixamorig:LeftHandThumb3
										{
											OFFSET	3.4086	-1.7658	2.1133
											CHANNELS 3 Zrotation Yrotation Xrotation
											End Site
											{
												OFFSET 2.7231 -1.1597 1.7902
											}
										}
									}
								}
								JOINT mixamorig:LeftHandIndex1
								{
									OFFSET	11.9722	-1.1061	3.7324
									CHANNELS 3 Zrotation Yrotation Xrotation
									JOINT mixamorig:LeftHandIndex2
									{
										OFFSET	3.8388	-0.6406	-0.0310
										CHANNELS 3 Zrotation Yrotation Xrotation
										JOINT mixamorig:LeftHandIndex3
										{
											OFFSET	3.3346	-0.7374	-0.0133
											CHANNELS 3 Zrotation Yrotation Xrotation
											End Site
											{
												OFFSET 2.9714 -0.8030 0.0009
											}
										}
									}
								}
								JOINT mixamorig:LeftHandRing1
								{
									OFFSET	12.1659	-1.6805	-1.2769
									CHANNELS 3 Zrotation Yrotation Xrotation
									JOINT mixamorig:LeftHandRing2
									{
										OFFSET	3.5926	-0.2366	-0.0771
										CHANNELS 3 Zrotation Yrotation Xrotation
										JOINT mixamorig:LeftHandRing3
										{
											OFFSET	3.2906	-0.3266	-0.0615
											CHANNELS 3 Zrotation Yrotation Xrotation
											End Site
											{
												OFFSET 3.5423 -0.9211 -0.0200
											}
										}
									}
								}
								JOINT mixamorig:LeftHandPinky1
								{
									OFFSET	11.0508	-2.1872	-3.8040
									CHANNELS 3 Zrotation Yrotation Xrotation
									JOINT mixamorig:LeftHandPinky2
									{
										OFFSET	4.1236	-0.3047	0.1212
										CHANNELS 3 Zrotation Yrotation Xrotation
										JOINT mixamorig:LeftHandPinky3
										{
											OFFSET	2.5805	-0.2597	0.0823
											CHANNELS 3 Zrotation Yrotation Xrotation
											End Site
											{
												OFFSET 2.9027 -0.3379 0.0963
											}
										}
									}
								}
							}
						}
					}
				}
				JOINT mixamorig:RightShoulder
				{
					OFFSET	-6.1057	9.1105	0.7056
					CHANNELS 3 Zrotation Yrotation Xrotation
					JOINT mixamorig:RightArm
					{
						OFFSET	-12.6532	-0.3429	-2.6009
						CHANNELS 3 Zrotation Yrotation Xrotation
						JOINT mixamorig:RightForeArm
						{
							OFFSET	-27.3517	-0.9641	-1.4034
							CHANNELS 3 Zrotation Yrotation Xrotation
							JOINT mixamorig:RightHand
							{
								OFFSET	-27.5619	-0.7068	1.5501
								CHANNELS 3 Zrotation Yrotation Xrotation
								JOINT mixamorig:RightHandMiddle1
								{
									OFFSET	-12.6631	-1.3960	0.9549
									CHANNELS 3 Zrotation Yrotation Xrotation
									JOINT mixamorig:RightHandMiddle2
									{
										OFFSET	-3.6093	-0.1669	0.0778
										CHANNELS 3 Zrotation Yrotation Xrotation
										JOINT mixamorig:RightHandMiddle3
										{
											OFFSET	-3.4005	-0.6273	0.1148
											CHANNELS 3 Zrotation Yrotation Xrotation
											End Site
											{
												OFFSET -3.6205 -0.6492 0.1199
											}
										}
									}
								}
								JOINT mixamorig:RightHandThumb1
								{
									OFFSET	-3.3269	-2.0474	3.5791
									CHANNELS 3 Zrotation Yrotation Xrotation
									JOINT mixamorig:RightHandThumb2
									{
										OFFSET	-3.4890	-1.4805	2.8548
										CHANNELS 3 Zrotation Yrotation Xrotation
										JOINT mixamorig:RightHandThumb3
										{
											OFFSET	-3.4086	-1.7658	2.1133
											CHANNELS 3 Zrotation Yrotation Xrotation
											End Site
											{
												OFFSET -2.7231 -1.1596 1.7902
											}
										}
									}
								}
								JOINT mixamorig:RightHandIndex1
								{
									OFFSET	-11.9722	-1.1059	3.7325
									CHANNELS 3 Zrotation Yrotation Xrotation
									JOINT mixamorig:RightHandIndex2
									{
										OFFSET	-3.8388	-0.6406	-0.0310
										CHANNELS 3 Zrotation Yrotation Xrotation
										JOINT mixamorig:RightHandIndex3
										{
											OFFSET	-3.3346	-0.7373	-0.0133
											CHANNELS 3 Zrotation Yrotation Xrotation
											End Site
											{
												OFFSET -2.9714 -0.8029 0.0009
											}
										}
									}
								}
								JOINT mixamorig:RightHandRing1
								{
									OFFSET	-12.1659	-1.6803	-1.2769
									CHANNELS 3 Zrotation Yrotation Xrotation
									JOINT mixamorig:RightHandRing2
									{
										OFFSET	-3.5926	-0.2366	-0.0771
										CHANNELS 3 Zrotation Yrotation Xrotation
										JOINT mixamorig:RightHandRing3
										{
											OFFSET	-3.2906	-0.3265	-0.0615
											CHANNELS 3 Zrotation Yrotation Xrotation
											End Site
											{
												OFFSET -3.5423 -0.9210 -0.0200
											}
										}
									}
								}
								JOINT mixamorig:RightHandPinky1
								{
									OFFSET	-11.0508	-2.1870	-3.8040
									CHANNELS 3 Zrotation Yrotation Xrotation
									JOINT mixamorig:RightHandPinky2
									{
										OFFSET	-4.1236	-0.3046	0.1212
										CHANNELS 3 Zrotation Yrotation Xrotation
										JOINT mixamorig:RightHandPinky3
										{
											OFFSET	-2.5805	-0.2597	0.0823
											CHANNELS 3 Zrotation Yrotation Xrotation
											End Site
											{
												OFFSET -2.9027 -0.3379 0.0963
											}
										}
									}
								}
							}
						}
					}
				}
			}
		}
	}
	JOINT mixamorig:RightUpLeg
	{
		OFFSET	-9.1245	-6.6564	-0.0554
		CHANNELS 3 Zrotation Yrotation Xrotation
		JOINT mixamorig:RightLeg
		{
			OFFSET	-0.0000	-40.5610	-1.7663
			CHANNELS 3 Zrotation Yrotation Xrotation
			JOINT mixamorig:RightFoot
			{
				OFFSET	0.4978	-41.9625	-3.3512
				CHANNELS 3 Zrotation Yrotation Xrotation
				JOINT mixamorig:RightToeBase
				{
					OFFSET	-0.3734	-10.4922	12.6407
					CHANNELS 3 Zrotation Yrotation Xrotation
					End Site
					{
						OFFSET 0.0000 -0.0000 9.9925
					}
				}
			}
		}
	}
	JOINT mixamorig:LeftUpLeg
	{
		OFFSET	9.1245	-6.6564	-0.0554
		CHANNELS 3 Zrotation Yrotation Xrotation
		JOINT mixamorig:LeftLeg
		{
			OFFSET	0.0000	-40.5610	-1.7663
			CHANNELS 3 Zrotation Yrotation Xrotation
			JOINT mixamorig:LeftFoot
			{
				OFFSET	-0.4978	-41.9625	-3.3512
				CHANNELS 3 Zrotation Yrotation Xrotation
				JOINT mixamorig:LeftToeBase
				{
					OFFSET	0.3734	-10.4922	12.6407
					CHANNELS 3 Zrotation Yrotation Xrotation
					End Site
					{
						OFFSET -0.0000 -0.0000 9.9925
					}
				}
			}
		}
	}
}
MOTION
Frames: 4
Frame Time: 0.0333333
-0.0027 96.5272 0.3008 1.2135 1.6795 6.4277 -0.9825 5.6611 5.4949 -1.0432 1.5309 0.3573 -1.0540 1.5387 0.3472 -6.1218 6.3989 -4.2655 -36.3488 60.9546 -41.8575 0.0000 -0.0000 0.0000 0.0000 -0.0000 0.0000 0.0000 -0.0000 0.0000 -11.4547 -5.7831 1.6881 -63.7272 -7.1892 31.2115 3.9946 -24.9308 -39.1039 13.2259 21.6656 7.6061 -27.4190 -2.8284 10.3203 -5.2618 0.8422 0.1835 -4.3539 0.5964 -0.1957 17.2737 -25.1060 41.7763 -9.1003 14.0196 -8.7875 33.9011 -10.9612 -31.3898 -15.7747 -6.5100 0.0454 -18.2581 -0.8944 -0.1368 -1.0922 0.0383 0.0070 -19.9123 3.4285 -0.4639 -32.7566 -3.6305 -2.6067 -5.6457 -0.3771 -2.9818 -16.4540 13.2638 6.0387 -30.9855 -1.4811 1.2248 -31.6145 -1.5341 1.2835 15.7082 10.8415 3.1849 71.4299 -7.2231 32.2337 -9.9562 10.1453 -47.4338 -2.0519 -2.2907 -2.3040 20.4651 -1.6550 2.1966 1.8890 0.0875 0.0435 1.6924 0.1475 0.0319 -11.0613 6.1551 1.9427 -1.9221 0.0057 -5.0587 3.7664 -2.0798 7.2418 2.8130 1.4852 -0.0831 8.2322 0.5903 -0.1202 -15.8807 -1.1235 0.4787 23.0479 0.0246 5.0635 6.0558 0.4516 -0.1345 1.9668 0.1006 -0.0402 19.1584 -34.7156 -15.8556 24.0740 1.7269 0.9485 24.7032 1.7871 0.9900 5.2808 -11.5107 -13.4288 -2.7352 0.3839 23.6980 -2.3201 -0.2704 -17.8444 -2.2936 2.6050 -3.0114 -0.7434 2.3601 -19.6041 -2.6670 -3.6503 27.9794 1.0581 -0.0129 -14.6438 -1.9445 2.1263 -2.6520 
-0.0797 96.5520 0.5368 1.0188 2.9947 6.0670 -1.1263 5.7422 5.6325 -1.0641 1.5552 0.4108 -1.0756 1.5633 0.4003 -6.0269 5.9751 -4.1357 -32.5642 56.8443 -39.2060 0.0000 -0.0000 0.0000 0.0000 -0.0000 0.0000 0.0000 -0.0000 0.0000 -11.4937 -5.6646 1.6690 -63.6559 -6.8410 31.2687 3.7755 -26.7607 -36.6381 12.1435 22.5701 7.8501 -28.4477 -3.3273 10.1170 -5.7889 0.8121 0.1963 -4.8638 0.5671 -0.1816 19.1596 -23.5908 38.4516 -9.1615 12.5001 -6.2721 32.8488 -11.3998 -31.1389 -15.5049 -7.1116 -0.3517 -18.4215 -0.9032 -0.1367 -1.2822 0.0285 0.0043 -19.5905 2.8526 -0.6722 -33.3023 -3.6572 -2.5943 -6.2000 -0.4117 -2.9804 -16.1930 12.0125 5.6352 -30.7115 -1.4708 1.2106 -31.2581 -1.5210 1.2646 15.3807 10.7689 3.1365 72.5223 -7.9097 32.4014 -11.2249 9.7813 -49.1623 -0.9897 -2.7439 -2.2283 21.5211 -1.1403 1.9862 2.4465 0.1317 0.0551 2.2099 0.1886 0.0431 -12.4833 4.8215 -0.3904 -1.1287 1.9256 -2.9916 4.6646 -2.1451 7.5767 2.5941 1.9972 -0.5958 8.4263 0.6047 -0.1220 -15.6200 -1.1069 0.4686 22.7039 0.5898 4.8700 6.7338 0.5046 -0.1466 2.5334 0.1440 -0.0534 19.0224 -33.3700 -16.1342 23.8728 1.7142 0.9376 24.3740 1.7665 0.9719 5.4413 -11.4738 -12.5674 -2.9135 -0.9240 23.2153 -2.6815 -0.2432 -17.8423 -2.2602 2.5305 -3.0619 -0.5514 1.8448 -19.2325 -2.8043 -4.5271 28.1332 1.0462 0.0542 -14.9234 -2.3590 2.0925 -2.5637 
-0.1484 96.4559 0.7155 0.7548 4.6547 5.7224 -1.1368 5.5029 5.8057 -1.0444 1.4906 0.4649 -1.0558 1.4988 0.4549 -5.7486 5.4608 -3.8952 -27.6333 52.0008 -35.3368 0.0000 -0.0000 0.0000 0.0000 -0.0000 0.0000 0.0000 -0.0000 0.0000 -12.0900 -6.0368 1.7709 -63.0899 -5.7940 30.8237 3.7498 -28.9059 -35.0572 11.2542 22.9033 7.9263 -29.3200 -3.8779 9.8112 -6.2541 0.7746 0.2059 -5.2801 0.5335 -0.1717 20.8280 -22.0260 34.9194 -9.3490 10.8962 -3.2745 31.4338 -11.9984 -30.7300 -14.9846 -7.7407 -0.7940 -18.4863 -0.9067 -0.1367 -1.4191 0.0214 0.0023 -19.1219 2.1252 -0.9309 -33.7097 -3.6604 -2.5624 -6.6319 -0.4324 -2.9536 -15.9190 10.5161 5.1315 -30.2876 -1.4547 1.1888 -30.6104 -1.4968 1.2306 15.0868 10.4786 3.0454 73.1553 -8.3278 32.4707 -12.2961 9.6578 -48.4277 -0.8538 -2.8166 -2.1454 22.4596 -0.5519 1.7418 2.9996 0.1755 0.0671 2.6485 0.2233 0.0529 -13.5985 3.7021 -2.7899 0.0094 3.9648 -0.5268 5.7250 -2.6389 7.9165 2.1766 2.5623 -1.1380 8.5750 0.6157 -0.1234 -15.2906 -1.0858 0.4560 22.2093 1.2785 4.5974 7.5029 0.5648 -0.1596 2.9996 0.1798 -0.0638 18.9332 -31.6347 -16.3163 23.6466 1.6998 0.9255 23.7998 1.7303 0.9407 5.8101 -11.6868 -12.0812 -3.3241 -2.2763 23.2778 -2.8181 -0.2082 -18.2149 -2.1658 2.4296 -2.9225 -0.4423 1.5506 -19.3136 -2.8361 -5.6589 29.1910 0.8938 0.3123 -16.0436 -3.6608 2.1988 -2.4592 
-0.2088 96.1734 0.7519 0.4331 6.3505 5.5013 -1.1480 4.8802 5.9814 -1.0099 1.3202 0.4942 -1.0200 1.3286 0.4854 -5.3263 4.8877 -3.6465 -21.1577 46.6195 -30.4836 0.0000 -0.0000 0.0000 0.0000 -0.0000 0.0000 0.0000 -0.0000 0.0000 -12.6267 -6.4376 1.8767 -62.6593 -4.7344 29.8719 3.9791 -30.0954 -35.2123 11.0143 22.2779 7.7466 -29.4030 -4.4274 9.3761 -6.3866 0.7497 0.2061 -5.3336 0.5143 -0.1681 22.0085 -21.1993 31.4765 -9.6910 9.3109 0.0830 29.2584 -12.8924 -30.0571 -13.8316 -8.3122 -1.2576 -18.3668 -0.9003 -0.1367 -1.4185 0.0215 0.0023 -18.2465 1.3406 -1.2201 -33.7093 -3.6263 -2.5172 -6.6722 -0.4293 -2.8978 -15.6795 8.9980 4.6026 -29.5697 -1.4270 1.1521 -29.5247 -1.4555 1.1741 15.1589 10.3385 3.0280 73.0099 -8.5146 31.4263 -12.9013 10.7354 -45.9908 -1.5254 -2.9397 -1.9667 22.6515 0.0438 1.4418 3.2637 0.1963 0.0730 2.7391 0.2305 0.0550 -14.2814 3.5376 -4.8686 1.4944 5.9575 2.2644 7.2770 -3.5025 8.4206 1.1801 3.0916 -1.6703 8.5938 0.6171 -0.1235 -14.9747 -1.0656 0.4440 21.3077 1.9890 4.2562 8.0983 0.6116 -0.1691 3.0972 0.1874 -0.0660 18.9168 -29.7334 -16.3242 23.2535 1.6747 0.9046 22.8350 1.6687 0.8891 6.7398 -12.2117 -12.6173 -4.4630 -2.8051 24.6842 -2.5263 -0.2139 -19.3884 -1.8882 2.1391 -2.4868 -0.1256 1.1182 -20.0641 -2.5026 -5.7131 31.0996 0.4171 0.5684 -17.4594 -3.4287 1.9993 -2.0915 
